<svg xmlns="http://www.w3.org/2000/svg" version="1.1" xmlns:xlink="http://www.w3.org/1999/xlink" xmlns:svgjs="http://svgjs.dev/svgjs" width="2000" height="2000" viewBox="0 0 2000 2000"><g transform="matrix(1,0,0,1,-0.28443113772425477,-0.28443113772459583)"><svg viewBox="0 0 334 334" data-background-color="#ffffff" preserveAspectRatio="xMidYMid meet" height="2000" width="2000" xmlns="http://www.w3.org/2000/svg" xmlns:xlink="http://www.w3.org/1999/xlink"><g id="tight-bounds" transform="matrix(1,0,0,1,0.04749999999998522,0.04750000000001364)"><svg viewBox="0 0 333.90454557049503 333.90454557049503" height="333.90454557049503" width="333.90454557049503"><g><svg></svg></g><g><svg viewBox="0 0 333.90454557049503 333.90454557049503" height="333.90454557049503" width="333.90454557049503"><g><path d="M0 166.952c0-92.205 74.747-166.952 166.952-166.952 92.205 0 166.952 74.747 166.953 166.952 0 92.205-74.747 166.952-166.953 166.953-92.205 0-166.952-74.747-166.952-166.953zM166.952 326.62c88.182 0 159.667-71.485 159.668-159.668 0-88.182-71.485-159.667-159.668-159.667-88.182 0-159.667 71.485-159.667 159.667 0 88.182 71.485 159.667 159.667 159.668z" data-fill-palette-color="tertiary" fill="#332885" stroke="transparent"></path><ellipse rx="160.27418187383762" ry="160.27418187383762" cx="166.95227278524752" cy="166.95227278524752" fill="#332885" stroke="transparent" stroke-width="0" fill-opacity="1" data-fill-palette-color="tertiary"></ellipse></g><g transform="matrix(1,0,0,1,92.7562025560895,71.17305217166896)"><svg viewBox="0 0 148.39214045831602 191.55844122715712" height="191.55844122715712" width="148.39214045831602"><g><svg viewBox="0 0 148.39214045831602 191.55844122715712" height="191.55844122715712" width="148.39214045831602"><g><svg viewBox="0 0 213.1584412271571 275.1648342679899" height="191.55844122715712" width="148.39214045831602"><g transform="matrix(1,0,0,1,0,159.12591951711147)"><svg viewBox="0 0 213.1584412271571 116.03891475087842" height="116.03891475087842" width="213.1584412271571"><g id="textblocktransform"><svg viewBox="0 0 213.1584412271571 116.03891475087842" height="116.03891475087842" width="213.1584412271571" id="textblock"><g><svg viewBox="0 0 213.1584412271571 116.03891475087842" height="116.03891475087842" width="213.1584412271571"><g transform="matrix(1,0,0,1,0,0)"><svg width="213.1584412271571" viewBox="4.659999847412109 -33.08000183105469 61.8900032043457 33.69000244140625" height="116.03891475087842" data-palette-color="#ffffff"><path d="M12.11 0.61L12.11 0.61Q8.15 0.61 4.66-0.02L4.66-0.02 4.66-32.69Q7.89-33.08 12.15-33.08 16.41-33.08 19.86-31.92 23.32-30.76 25.63-28.61L25.63-28.61Q30.32-24.32 30.32-16.58L30.32-16.58Q30.32-7.91 25.1-3.42L25.1-3.42Q20.41 0.61 12.11 0.61ZM11.01-27.1L11.01-5.35Q12.6-5.05 14.18-5.05 15.77-5.05 17.6-5.68 19.43-6.3 20.78-7.62L20.78-7.62Q23.66-10.4 23.66-15.72L23.66-15.72Q23.66-24.46 17.29-26.46L17.29-26.46Q15.19-27.12 12.43-27.12L12.43-27.12 11.77-27.12Q11.4-27.12 11.01-27.1L11.01-27.1ZM44.09-20.58L44.09 0.15Q42.92 0 39.57 0L39.57 0 37.62 0 37.62-32.57Q39.18-32.47 41.06-32.47 42.94-32.47 43.72-32.67L43.72-32.67 51.93-18.73 59.81-32.67Q60.59-32.47 62.79-32.47 64.99-32.47 66.55-32.57L66.55-32.57 66.55 0 64.6 0Q61.25 0 60.08 0.15L60.08 0.15 60.08-21.73 52.1-7.45 44.09-20.58Z" opacity="1" transform="matrix(1,0,0,1,0,0)" fill="#ffffff" class="undefined-text-0" data-fill-palette-color="quaternary" id="text-0"></path></svg></g></svg></g></svg></g></svg></g><g transform="matrix(1,0,0,1,40.713262274387006,0)"><svg viewBox="0 0 131.7319166783831 131.7319166783831" height="131.7319166783831" width="131.7319166783831"><g><svg xmlns="http://www.w3.org/2000/svg" xmlns:xlink="http://www.w3.org/1999/xlink" version="1.1" x="0" y="0" viewBox="1 1 126 126" style="enable-background:new 0 0 128 128;" xml:space="preserve" height="131.7319166783831" width="131.7319166783831" class="icon-icon-0" data-fill-palette-color="quaternary" id="icon-0"><g fill="#ffffff" data-fill-palette-color="quaternary"><path d="M110.937 52.703c-7.691-4.44-16.653-5.62-25.231-3.321-8.267 2.215-15.218 7.411-19.687 14.668 9.403 17.409 3.288 39.323-13.954 49.278-5.771 3.331-12.084 4.915-18.313 4.915-0.632 0-1.264-0.028-1.894-0.062C41.271 123.777 52.257 127 64 127c31.814 0 58.104-23.586 62.378-54.223C124.154 64.602 118.837 57.265 110.937 52.703z" fill="#ffffff" data-fill-palette-color="quaternary"></path><path d="M64 1c-8.339 0-16.291 1.635-23.575 4.577C34.448 11.591 30.749 19.872 30.749 29c0 18.01 14.396 32.711 32.285 33.226 4.938-8.026 12.624-13.774 21.766-16.224 9.482-2.54 19.386-1.237 27.887 3.671 6.348 3.666 11.181 8.957 14.295 15.043C126.983 64.476 127 64.24 127 64 127 29.206 98.795 1 64 1z" fill="#ffffff" data-fill-palette-color="quaternary"></path><path d="M50.314 110.297c15.598-9.006 21.13-28.825 12.632-44.574C43.168 65.162 27.249 48.91 27.249 29c0-7.337 2.17-14.175 5.891-19.918C13.961 19.882 1 40.421 1 64c0 20.167 9.486 38.105 24.228 49.636C33.414 115.793 42.419 114.854 50.314 110.297z" fill="#ffffff" data-fill-palette-color="quaternary"></path></g></svg></g></svg></g><g></g></svg></g></svg></g></svg></g></svg></g><defs></defs></svg><rect width="333.90454557049503" height="333.90454557049503" fill="none" stroke="none" visibility="hidden"></rect></g></svg></g></svg>